<?xml version="1.0" standalone="no"?>
<!DOCTYPE svg PUBLIC "-//W3C//DTD SVG 20010904//EN"
 "http://www.w3.org/TR/2001/REC-SVG-20010904/DTD/svg10.dtd">
<svg version="1.0" xmlns="http://www.w3.org/2000/svg"
 width="128.000000pt" height="128.000000pt" viewBox="0 0 128.000000 128.000000"
 preserveAspectRatio="xMidYMid meet">

<g transform="translate(0.000000,128.000000) scale(0.100000,-0.100000)"
fill="#000000" stroke="none">
<path d="M340 1008 c-221 -231 -260 -277 -258 -299 2 -20 59 -74 257 -242 263
-224 292 -242 310 -194 4 12 11 78 15 147 4 68 9 127 12 130 3 3 36 5 74 4
121 -1 141 -34 100 -166 -20 -67 -92 -235 -127 -301 -23 -42 -20 -73 8 -82 28
-9 47 5 162 125 200 206 296 360 305 486 4 57 1 78 -16 110 -57 112 -235 198
-451 220 l-71 7 0 151 c0 156 -5 176 -41 176 -10 0 -135 -123 -279 -272z m242
-10 l3 -123 110 -12 c132 -15 193 -28 264 -60 105 -46 161 -106 161 -173 0
-63 -87 -219 -179 -320 l-40 -45 24 73 c52 156 40 235 -40 276 -33 18 -58 21
-152 21 -78 0 -116 -4 -125 -13 -8 -8 -17 -60 -23 -128 l-10 -114 -191 162
c-105 90 -192 168 -192 173 -1 11 369 404 380 405 4 0 9 -55 10 -122z"/>
</g>
</svg>
